<svg width="529" height="247" viewBox="0 0 529 247" fill="none" xmlns="http://www.w3.org/2000/svg">
<path d="M0 6.19888e-06H31L112.5 95L192 6.19888e-06L233 0V70L194 114V61L112 159L38 70V247H0V6.19888e-06Z" fill="#031A6B"/>
<path d="M529 6.19888e-06H498L416.5 95L337 6.19888e-06L296 0V159L335 114V61L417 159L491 70V247H529V6.19888e-06Z" fill="#031A6B"/>
<path fill-rule="evenodd" clip-rule="evenodd" d="M276 115H234L177 178V247H249L270.5 222L293 247H335L249 147L276 115ZM226.5 172L208 192V212H262L246 194L226.5 172Z" fill="#033860"/>
</svg>
